# xmcd
#
# Track frame offsets:
#	150
#	15091
#	39572
#	62562
#	75623
#	98440
#	110390
#	128019
#	144138
#	159195
#	178995
#	197847
#	214894
#	233709
#	252925
#	269620
#	283850
#	308203
#
# Disc length: 4277 seconds
#
# Revision: 0
# Processed by: cddbd v1.5.1PL0 Copyright (c) Steve Scherf et al.
# Submitted via: audiograbber 1.83.01
#
DISCID=ee10b312
DTITLE=Bad Company - The Original Anthogoly CD2
DYEAR=1900
DGENRE=Rock
TTITLE0=Honey Child
TTITLE1=Run With The Pack
TTITLE2=Silver, Blue And Gold
TTITLE3=Do Right By Your Woman
TTITLE4=Burnin' Sky
TTITLE5=Heartbeat
TTITLE6=Too Bad
TTITLE7=Somkin' 45
TTITLE8=Rock And Roll Fantasy
TTITLE9=Evil Wind
TTITLE10=Oh Atlanta
TTITLE11=Rhythm Machine
TTITLE12=Untie The Knot
TTITLE13=Downhill Ryder
TTITLE14=Tracking Down A Runaway
TTITLE15=Ain't It Good
TTITLE16=Hammer Of Love
TTITLE17=Hey, Hey
EXTD=
EXTT0=
EXTT1=
EXTT2=
EXTT3=
EXTT4=
EXTT5=
EXTT6=
EXTT7=
EXTT8=
EXTT9=
EXTT10=
EXTT11=
EXTT12=
EXTT13=
EXTT14=
EXTT15=
EXTT16=
EXTT17=
PLAYORDER=
